<svg width="311px" height="105px" viewBox="0 0 311 105" version="1.1" xmlns="http://www.w3.org/2000/svg" xmlns:xlink="http://www.w3.org/1999/xlink">
  <!-- Generator: Sketch 48.2 (47327) - http://www.bohemiancoding.com/sketch -->
  <desc>Created with Sketch.</desc>
  <defs>
    <polygon id="path-1" points="0.0014 0.7114 41.0134 0.7114 41.0134 5 0.0014 5"/>
  </defs>
  <g id="Propuesta" stroke="none" stroke-width="1" fill="none" fill-rule="evenodd">
    <g id="Page-1">
      <path d="M9.8052,75.7553 C5.9252,75.7553 4.0842,78.6423 4.0842,82.1413 C4.0842,85.6473 5.9252,88.5263 9.8052,88.5263 C13.2782,88.5263 15.5262,85.6473 15.5262,82.1413 C15.5262,78.6423 13.2782,75.7553 9.8052,75.7553 Z M19.1982,91.4093 L18.7862,91.8213 L15.9342,91.8213 L15.5262,91.4093 L15.1142,90.1733 L14.9092,89.9703 L14.7022,90.1733 C13.4782,91.4093 11.6412,92.2293 9.6052,92.2293 C4.2882,92.2293 0.0002,88.1143 0.0002,82.1413 C0.0002,76.1703 4.2882,72.0483 9.6052,72.0483 C11.6002,72.0483 13.4782,72.8683 14.7022,74.1043 L14.9092,74.3083 L15.1142,74.1043 L15.1142,60.9243 L15.5262,60.5163 L18.7862,60.5163 L19.1982,60.9243 L19.1982,91.4093 Z" id="Fill-1" fill="#FFFFFF"/>
      <path d="M26.5205,79.5458 L36.7295,79.5458 C36.5255,77.4028 34.4815,75.7518 31.8295,75.7518 C28.7615,75.7518 27.1325,77.4028 26.5205,79.5458 Z M26.3125,83.1728 C26.3125,86.0518 28.5605,88.5268 32.0335,88.5268 C34.4815,88.5268 36.3255,87.0838 36.9305,85.4328 L37.3415,85.4328 L40.1605,87.2918 L40.1605,87.7038 C38.3995,90.3788 35.7095,92.2338 32.0335,92.2338 C26.9325,92.2338 22.2275,88.1118 22.2275,82.1418 C22.2275,76.1718 26.5205,72.0488 31.8295,72.0488 C36.7295,72.0488 41.2185,75.9568 41.0215,81.9378 L40.6105,83.1728 L26.3125,83.1728 Z" id="Fill-3" fill="#FFFFFF"/>
      <polygon id="Fill-5" fill="#FFFFFF" points="0.5684 1.7128 0.0014 2.2798 0.0014 42.8338 0.5684 43.4038 24.3544 43.4038 24.9204 42.8338 24.9204 38.2658 24.3544 37.6948 5.9484 37.6948 5.9484 2.2798 5.3784 1.7128"/>
      <path d="M48.4277,30.7826 C48.4277,30.7826 47.9737,30.8926 39.6537,31.6976 C36.3057,32.0406 34.6097,33.1256 34.6097,35.4076 C34.6097,37.6936 36.6497,39.0046 39.3667,39.0046 C43.6177,39.0046 47.8567,36.5486 48.4277,32.5556 L48.4277,30.7826 Z M30.3097,25.1306 L29.7397,24.5596 C30.3097,19.9916 34.8367,15.9906 41.6297,15.9906 C47.2937,15.9906 53.5247,19.1306 53.5247,26.2716 L53.5247,42.8326 L52.9537,43.4026 L48.9937,43.4026 L48.4277,42.8326 L48.1437,40.8336 L47.8567,40.5466 L47.5807,40.8336 C45.5937,42.5486 42.4807,43.9736 39.0837,43.9736 C33.6497,43.9736 29.1727,41.1206 29.1727,35.4076 C29.1727,30.2686 33.0267,27.6426 39.0837,27.1286 C47.9177,26.3846 48.0877,26.2716 48.0877,26.2716 L48.0877,25.7006 C48.0877,22.2696 45.0307,20.8486 41.6297,20.8486 C38.2367,20.8486 35.6867,22.5606 35.4037,24.5596 L34.8367,25.1306 L30.3097,25.1306 Z" id="Fill-7" fill="#FFFFFF"/>
      <path d="M70.8027,38.8353 C76.1827,38.8353 78.7297,34.8383 78.7297,29.9793 C78.7297,25.1303 76.1827,21.1293 70.8027,21.1293 C65.9927,21.1293 62.8757,25.1303 62.8757,29.9793 C62.8757,34.8383 65.9927,38.8353 70.8027,38.8353 Z M57.7787,0.5703 L58.3417,0.0003 L62.8757,0.0003 L63.4417,0.5703 L63.4417,18.8433 L63.7287,19.1303 L64.0047,18.8433 C65.7057,17.1313 68.3087,15.9873 71.0857,15.9873 C78.4467,15.9873 84.3937,21.7003 84.3937,29.9793 C84.3937,38.2653 78.4467,43.9743 71.0857,43.9743 C68.2557,43.9743 65.7057,42.8333 64.0047,41.1173 L63.7287,40.8343 L63.4417,41.1173 L62.8757,42.8333 L62.3047,43.4033 L58.3417,43.4033 L57.7787,42.8333 L57.7787,0.5703 Z" id="Fill-9" fill="#FFFFFF"/>
      <path d="M102.54,38.8368 C107.921,38.8368 110.751,34.8388 110.751,29.9838 C110.751,25.1318 107.921,21.1308 102.54,21.1308 C97.16,21.1308 94.269,25.1318 94.269,29.9838 C94.269,34.8388 97.16,38.8368 102.54,38.8368 M102.54,15.9878 C109.9,15.9878 116.415,21.7008 116.415,29.9838 C116.415,38.2658 109.9,43.9758 102.54,43.9758 C95.176,43.9758 88.662,38.2658 88.662,29.9838 C88.662,21.7008 95.176,15.9878 102.54,15.9878" id="Fill-11" fill="#FFFFFF"/>
      <path d="M120.6748,17.1317 L121.2458,16.5617 L125.2018,16.5617 L125.7718,17.1317 L126.3388,18.8437 L126.6188,19.1307 L126.9018,18.8437 C128.3188,17.1317 131.1488,15.9867 133.4158,15.9867 C140.2098,15.9867 143.8938,19.9887 143.8938,26.2687 L143.3268,26.8467 L138.7928,27.4097 L138.2298,26.8467 C138.2298,22.8487 135.9628,21.1297 132.5658,21.1297 C129.2258,21.1297 126.4558,23.8727 126.3388,27.1827 L126.3388,42.8327 L125.7718,43.4037 L121.2458,43.4037 L120.6748,42.8327 L120.6748,17.1317 Z" id="Fill-13" fill="#FFFFFF"/>
      <path d="M167.4038,30.7826 C167.4038,30.7826 166.9498,30.8926 158.6228,31.6976 C155.2858,32.0406 153.5858,33.1256 153.5858,35.4076 C153.5858,37.6936 155.6258,39.0046 158.3428,39.0046 C162.5938,39.0046 166.8408,36.5486 167.4038,32.5556 L167.4038,30.7826 Z M149.2858,25.1306 L148.7158,24.5596 C149.2858,19.9916 153.8128,15.9906 160.6058,15.9906 C166.2698,15.9906 172.5008,19.1306 172.5008,26.2716 L172.5008,42.8326 L171.9378,43.4026 L167.9738,43.4026 L167.4038,42.8326 L167.1198,40.8336 L166.8408,40.5466 L166.5568,40.8336 C164.5698,42.5486 161.4568,43.9736 158.0598,43.9736 C152.6258,43.9736 148.1528,41.1206 148.1528,35.4076 C148.1528,30.2686 152.0028,27.6426 158.0598,27.1286 C166.8938,26.3846 167.0638,26.2716 167.0638,26.2716 L167.0638,25.7006 C167.0638,22.2696 164.0068,20.8486 160.6058,20.8486 C157.2128,20.8486 154.6628,22.5606 154.3798,24.5596 L153.8128,25.1306 L149.2858,25.1306 Z" id="Fill-15" fill="#FFFFFF"/>
      <path d="M176.7568,7.4227 L181.2838,1.7057 L182.4208,1.7057 L182.4208,16.5587 L191.4818,16.5587 L192.0448,17.1297 L192.0448,21.1277 L191.4818,21.6977 L182.4208,21.6977 L182.4208,35.4097 C182.4208,37.1217 183.5538,38.2627 185.2468,38.2627 L188.6478,37.6927 L189.2178,38.2627 L189.2178,42.2677 L188.6478,42.8347 L185.5298,43.4017 C179.8668,43.4017 176.7568,39.9777 176.7568,34.8357 L176.7568,7.4227 Z" id="Fill-17" fill="#FFFFFF"/>
      <path d="M210.1841,38.8368 C215.5641,38.8368 218.3941,34.8388 218.3941,29.9838 C218.3941,25.1318 215.5641,21.1308 210.1841,21.1308 C204.8031,21.1308 201.9161,25.1318 201.9161,29.9838 C201.9161,34.8388 204.8031,38.8368 210.1841,38.8368 M210.1841,15.9878 C217.5441,15.9878 224.0551,21.7008 224.0551,29.9838 C224.0551,38.2658 217.5441,43.9758 210.1841,43.9758 C202.8231,43.9758 196.3061,38.2658 196.3061,29.9838 C196.3061,21.7008 202.8231,15.9878 210.1841,15.9878" id="Fill-19" fill="#FFFFFF"/>
      <path d="M228.3193,17.1317 L228.8823,16.5617 L232.8463,16.5617 L233.4163,17.1317 L233.9833,18.8437 L234.2663,19.1307 L234.5463,18.8437 C235.9633,17.1317 238.7933,15.9867 241.0563,15.9867 C247.8623,15.9867 251.5383,19.9887 251.5383,26.2687 L250.9713,26.8467 L246.4453,27.4097 L245.8743,26.8467 C245.8743,22.8487 243.6073,21.1297 240.2103,21.1297 C236.8703,21.1297 234.0933,23.8727 233.9833,27.1827 L233.9833,42.8327 L233.4163,43.4037 L228.8823,43.4037 L228.3193,42.8327 L228.3193,17.1317 Z" id="Fill-21" fill="#FFFFFF"/>
      <path d="M264.8506,3.9935 L264.2836,4.5675 L264.2836,11.4185 L264.8506,11.9955 L271.0776,11.9955 L271.6476,11.4185 L271.6476,4.5675 L271.0776,3.9935 L264.8506,3.9935 Z M258.6236,16.5645 L258.0526,17.1275 L258.0526,21.1285 L258.6236,21.7025 L264.8506,21.7025 L264.8506,38.2605 L256.3606,38.2605 L255.7896,38.8385 L255.7896,42.8365 L256.3606,43.3995 L278.4416,43.3995 L279.0046,42.8365 L279.0046,38.8385 L278.4416,38.2605 L270.5146,38.2605 L270.5146,17.1275 L269.9476,16.5645 L258.6236,16.5645 Z" id="Fill-23" fill="#FFFFFF"/>
      <path d="M297.1445,38.8368 C302.5255,38.8368 305.3545,34.8388 305.3545,29.9838 C305.3545,25.1318 302.5255,21.1308 297.1445,21.1308 C291.7645,21.1308 288.8775,25.1318 288.8775,29.9838 C288.8775,34.8388 291.7645,38.8368 297.1445,38.8368 M297.1445,15.9878 C304.5045,15.9878 311.0185,21.7008 311.0185,29.9838 C311.0185,38.2658 304.5045,43.9758 297.1445,43.9758 C289.7845,43.9758 283.2735,38.2658 283.2735,29.9838 C283.2735,21.7008 289.7845,15.9878 297.1445,15.9878" id="Fill-25" fill="#FFFFFF"/>
      <path d="M120.395,98.7826 C125.775,98.7826 128.605,94.7846 128.605,89.9256 C128.605,85.0776 125.775,81.0766 120.395,81.0766 C115.014,81.0766 112.128,85.0776 112.128,89.9256 C112.128,94.7846 115.014,98.7826 120.395,98.7826 M120.395,75.9376 C127.755,75.9376 134.266,81.6466 134.266,89.9256 C134.266,98.2116 127.755,103.9286 120.395,103.9286 C113.035,103.9286 106.521,98.2116 106.521,89.9256 C106.521,81.6466 113.035,75.9376 120.395,75.9376" id="Fill-27" fill="#FFFFFF"/>
      <path d="M151.5601,98.7826 C156.9411,98.7826 159.4871,94.7846 159.4871,89.9296 C159.4871,85.0776 156.9411,81.0766 151.5601,81.0766 C146.7501,81.0766 143.6331,85.0776 143.6331,89.9296 C143.6331,94.7846 146.7501,98.7826 151.5601,98.7826 Z M138.5361,60.5176 L139.0991,59.9396 L143.6331,59.9396 L144.2001,60.5176 L144.2001,78.7906 L144.4871,79.0776 L144.7631,78.7906 C146.4631,77.0786 149.0661,75.9376 151.8431,75.9376 C159.2041,75.9376 165.1511,81.6466 165.1511,89.9296 C165.1511,98.2116 159.2041,103.9216 151.8431,103.9216 C149.0141,103.9216 146.4631,102.7806 144.7631,101.0686 L144.4871,100.7816 L144.2001,101.0686 L143.6331,102.7806 L143.0621,103.3506 L139.0991,103.3506 L138.5361,102.7806 L138.5361,60.5176 Z" id="Fill-29" fill="#FFFFFF"/>
      <path d="M178.4414,63.9408 L177.8784,64.5148 L177.8784,71.3688 L178.4414,71.9358 L184.6684,71.9358 L185.2354,71.3688 L185.2354,64.5148 L184.6684,63.9408 L178.4414,63.9408 Z M172.2104,76.5078 L171.6444,77.0828 L171.6444,81.0798 L172.2104,81.6428 L178.4414,81.6428 L178.4414,98.2108 L169.9434,98.2108 L169.3804,98.7818 L169.3804,102.7838 L169.9434,103.3498 L192.0324,103.3498 L192.6034,102.7838 L192.6034,98.7818 L192.0324,98.2108 L184.1014,98.2108 L184.1014,77.0828 L183.5424,76.5078 L172.2104,76.5078 Z" id="Fill-31" fill="#FFFFFF"/>
      <path d="M202.8027,86.3295 L216.9567,86.3295 C216.6807,83.3595 213.8477,81.0735 210.1667,81.0735 C205.9197,81.0735 203.6567,83.3595 202.8027,86.3295 Z M202.5187,91.3585 C202.5187,95.3565 205.6367,98.7835 210.4467,98.7835 C213.8477,98.7835 216.3937,96.7845 217.2437,94.4985 L217.8107,94.4985 L221.7137,97.0685 L221.7137,97.6425 C219.2807,101.3525 215.5477,103.9225 210.4467,103.9225 C203.3727,103.9225 196.8557,98.2125 196.8557,89.9305 C196.8557,81.6445 202.8027,75.9345 210.1667,75.9345 C216.9567,75.9345 223.1917,81.3615 222.9077,89.6395 L222.3447,91.3585 L202.5187,91.3585 Z" id="Fill-33" fill="#FFFFFF"/>
      <path d="M227.1831,77.0785 L227.7461,76.5075 L231.7101,76.5075 L232.2801,77.0785 L232.8471,78.7935 L233.1301,79.0775 L233.4101,78.7935 C234.8271,77.0785 237.6571,75.9375 239.9201,75.9375 C246.7181,75.9375 250.4021,79.9345 250.4021,86.2145 L249.8351,86.7855 L245.3091,87.3555 L244.7381,86.7855 C244.7381,82.7955 242.4711,81.0765 239.0741,81.0765 C235.7341,81.0765 232.9561,83.8195 232.8471,87.1295 L232.8471,102.7795 L232.2801,103.3535 L227.7461,103.3535 L227.1831,102.7795 L227.1831,77.0785 Z" id="Fill-35" fill="#FFFFFF"/>
      <path d="M255.2388,76.5087 L259.4858,76.5087 L260.0488,77.0787 L260.3358,78.7907 L260.6188,79.0777 L260.9028,78.7907 C262.3198,77.0787 265.1498,75.9377 267.6998,75.9377 C274.4938,75.9377 279.0208,79.6487 279.0208,87.3567 L279.0208,102.7807 L278.4578,103.3507 L273.9268,103.3507 L273.3568,102.7807 L273.3568,87.9267 C273.3568,83.3627 271.0928,81.0767 267.1368,81.0767 C263.5098,81.0767 260.4488,83.8197 260.3358,87.1307 L260.3358,102.7807 L259.7648,103.3507 L255.2388,103.3507 L254.6758,102.7807 L254.6758,77.0787 L255.2388,76.5087 Z" id="Fill-37" fill="#FFFFFF"/>
      <path d="M297.1445,98.7826 C302.5255,98.7826 305.3545,94.7846 305.3545,89.9256 C305.3545,85.0776 302.5255,81.0766 297.1445,81.0766 C291.7645,81.0766 288.8775,85.0776 288.8775,89.9256 C288.8775,94.7846 291.7645,98.7826 297.1445,98.7826 M297.1445,75.9376 C304.5045,75.9376 311.0185,81.6466 311.0185,89.9256 C311.0185,98.2116 304.5045,103.9286 297.1445,103.9286 C289.7845,103.9286 283.2735,98.2116 283.2735,89.9256 C283.2735,81.6466 289.7845,75.9376 297.1445,75.9376" id="Fill-39" fill="#FFFFFF"/>
      <g id="Group-43" transform="translate(0.000000, 99.497000)">
        <mask id="mask-2" fill="white">
          <use xlink:href="#path-1"/>
        </mask>
        <g id="Clip-42"/>
        <polygon id="Fill-41" fill="#FFFFFF" mask="url(#mask-2)" points="0.5684 0.7114 0.0274 1.2704 0.0014 1.2934 0.0014 4.4214 0.5684 5.0004 40.4464 5.0004 41.0134 4.4214 41.0134 4.4104 41.0134 1.2814 40.4464 0.7114"/>
      </g>
      <path d="M101.9097,84.9867 L96.9037,79.9307 L75.9547,79.9347 L75.3917,80.5057 L75.3917,85.0667 L75.9547,85.6367 L96.4457,85.6447 C95.8787,93.3597 89.5917,98.7817 81.3247,98.7817 C71.9807,98.7817 66.0937,91.9317 66.0937,82.5607 C66.0937,73.0807 71.9807,66.2227 81.3247,66.2227 C86.6297,66.2227 90.8987,68.4187 93.6387,72.0487 L94.4627,72.1097 L97.6737,68.8797 L97.6807,67.9757 C93.7407,63.3967 88.1747,60.5137 81.6077,60.5137 C69.1507,60.5137 60.0897,70.2247 60.0897,82.5047 C60.0897,94.7847 69.1507,104.4947 81.3247,104.4947 C92.5157,104.4947 101.4977,95.8537 102.2537,85.7237 L101.9097,84.9867 Z" id="Fill-44" fill="#FFFFFF"/>
    </g>
  </g>
</svg>