<svg id="Capa_1" data-name="Capa 1" xmlns="http://www.w3.org/2000/svg" viewBox="0 0 571 230"><defs><style>.cls-1{fill:#b3b3b3;}.cls-2{fill:#fff;}.cls-3{fill:#1071b3;}.cls-4{fill:#ef514f;}</style></defs><title>logo red</title><g id="_Grupo_" data-name="&lt;Grupo&gt;"><rect id="_Rectángulo_" data-name="&lt;Rectángulo&gt;" class="cls-1" x="27.16" y="122.6" width="192.39" height="85.13"/><g id="_Grupo_2" data-name="&lt;Grupo&gt;"><path id="_Trazado_compuesto_" data-name="&lt;Trazado compuesto&gt;" class="cls-2" d="M53.39,169.39H51.71l-.21.21v6.75l-.1.1-.11-.1a3.71,3.71,0,0,0-2.61-1,5.17,5.17,0,0,0,0,10.32,3.67,3.67,0,0,0,2.61-1.05l.11-.1.1.1.21.63.22.21h1.46l.21-.21V169.6Zm-4.6,14.34c-2,0-2.93-1.48-2.93-3.27s.94-3.27,2.93-3.27a3.29,3.29,0,0,1,0,6.54"/><path id="_Trazado_compuesto_2" data-name="&lt;Trazado compuesto&gt;" class="cls-2" d="M60.06,175.3a4.91,4.91,0,0,0-4.91,5.16,5.06,5.06,0,0,0,5,5.17,4.82,4.82,0,0,0,4.16-2.32v-.21l-1.44-.95h-.21a2.62,2.62,0,0,1-2.51,1.58A2.76,2.76,0,0,1,57.24,181h7.31l.21-.63a4.72,4.72,0,0,0-4.7-5.06m-2.72,3.83a2.6,2.6,0,0,1,2.72-1.94,2.36,2.36,0,0,1,2.51,1.94Z"/><polygon id="_Trazado_" data-name="&lt;Trazado&gt;" class="cls-2" points="46.52 139.3 44.06 139.3 43.77 139.59 43.77 160.35 44.06 160.64 56.23 160.64 56.52 160.35 56.52 158.01 56.23 157.72 46.81 157.72 46.81 139.59 46.52 139.3"/><path id="_Trazado_compuesto_3" data-name="&lt;Trazado compuesto&gt;" class="cls-2" d="M65.08,146.61c-3.48,0-5.8,2-6.09,4.39l.29.29H61.6l.29-.29c.14-1,1.45-1.9,3.19-1.9s3.3.72,3.3,2.48v.29s-.09.06-4.61.44c-3.1.26-5.07,1.61-5.07,4.24,0,2.92,2.29,4.38,5.07,4.38a6.85,6.85,0,0,0,4.35-1.61l.14-.14.15.14.14,1,.29.29h2l.29-.29v-8.48c0-3.65-3.19-5.26-6.08-5.26m-1.16,11.78c-1.39,0-2.44-.67-2.44-1.84s.87-1.73,2.58-1.9c4.26-.41,4.49-.47,4.49-.47v.91c-.29,2-2.46,3.3-4.63,3.3"/><path id="_Trazado_compuesto_4" data-name="&lt;Trazado compuesto&gt;" class="cls-2" d="M76,138.43H73.63l-.29.29v21.63l.29.29h2l.3-.29.29-.88.14-.15.14.15a5.14,5.14,0,0,0,3.63,1.46,7.17,7.17,0,0,0,0-14.32,5.2,5.2,0,0,0-3.63,1.46l-.14.15-.14-.15v-9.35Zm4,19.87c-2.46,0-4-2-4-4.53s1.59-4.53,4-4.53c2.76,0,4.06,2,4.06,4.53s-1.3,4.53-4.06,4.53"/><path id="_Trazado_compuesto_5" data-name="&lt;Trazado compuesto&gt;" class="cls-2" d="M96.24,146.61a7.16,7.16,0,1,0,7.11,7.16,7,7,0,0,0-7.11-7.16m0,11.69c-2.75,0-4.23-2-4.23-4.53s1.48-4.53,4.23-4.53,4.21,2,4.21,4.53S99,158.3,96.24,158.3"/><path id="_Trazado_2" data-name="&lt;Trazado&gt;" class="cls-2" d="M112,146.61a4.69,4.69,0,0,0-3.33,1.46l-.14.15-.15-.15-.29-.88-.29-.29h-2l-.29.29v13.16l.29.29h2.32l.29-.29v-8a3.23,3.23,0,0,1,3.19-3.1,2.61,2.61,0,0,1,2.9,2.92l.29.29,2.32-.29.29-.29c0-3.21-1.89-5.26-5.37-5.26"/><path id="_Trazado_compuesto_6" data-name="&lt;Trazado compuesto&gt;" class="cls-2" d="M126,146.61c-3.48,0-5.8,2-6.09,4.39l.29.29h2.32l.29-.29c.15-1,1.45-1.9,3.19-1.9s3.3.72,3.3,2.48v.29s-.08.06-4.61.44c-3.1.26-5.07,1.61-5.07,4.24,0,2.92,2.3,4.38,5.07,4.38a6.83,6.83,0,0,0,4.35-1.61l.15-.14.14.14.15,1,.29.29h2l.28-.29v-8.48c0-3.65-3.18-5.26-6.08-5.26m-1.16,11.78c-1.39,0-2.43-.67-2.43-1.84s.87-1.73,2.57-1.9c4.26-.41,4.5-.47,4.5-.47v.91c-.29,2-2.47,3.3-4.64,3.3"/><path id="_Trazado_3" data-name="&lt;Trazado&gt;" class="cls-2" d="M137.12,139.3h-.58l-2.32,2.93v14a4.1,4.1,0,0,0,4.49,4.39l1.6-.29.29-.29V158l-.29-.29-1.74.29a1.38,1.38,0,0,1-1.45-1.46v-7h4.64l.28-.29v-2.05l-.28-.29h-4.64Z"/><path id="_Trazado_compuesto_7" data-name="&lt;Trazado compuesto&gt;" class="cls-2" d="M151.33,146.61a7.16,7.16,0,1,0,7.1,7.16,7,7,0,0,0-7.1-7.16m0,11.69c-2.75,0-4.23-2-4.23-4.53s1.48-4.53,4.23-4.53,4.2,2,4.2,4.53-1.45,4.53-4.2,4.53"/><path id="_Trazado_4" data-name="&lt;Trazado&gt;" class="cls-2" d="M167.13,146.61a4.67,4.67,0,0,0-3.33,1.46l-.15.15-.14-.15-.29-.88-.3-.29h-2l-.29.29v13.16l.29.29h2.32l.29-.29v-8a3.22,3.22,0,0,1,3.19-3.1,2.61,2.61,0,0,1,2.89,2.92l.29.29,2.32-.29.29-.29c0-3.21-1.88-5.26-5.36-5.26"/><path id="_Trazado_compuesto_8" data-name="&lt;Trazado compuesto&gt;" class="cls-2" d="M182.49,140.47H179.3l-.29.29v3.51l.29.3h3.19l.29-.3v-3.51Zm-.58,6.43h-5.79l-.3.29v2.05l.3.29h3.18V158H175l-.29.29v2l.29.29h11.3l.29-.29v-2l-.29-.29H182.2V147.19Z"/><path id="_Trazado_compuesto_9" data-name="&lt;Trazado compuesto&gt;" class="cls-2" d="M195.83,146.61a7.16,7.16,0,1,0,7.1,7.16,7,7,0,0,0-7.1-7.16m0,11.69c-2.75,0-4.23-2-4.23-4.53s1.48-4.53,4.23-4.53,4.2,2,4.2,4.53-1.45,4.53-4.2,4.53"/><path id="_Trazado_compuesto_10" data-name="&lt;Trazado compuesto&gt;" class="cls-2" d="M105.38,177.29a7.16,7.16,0,1,0,7.1,7.16,7.05,7.05,0,0,0-7.1-7.16m0,11.69c-2.75,0-4.23-2-4.23-4.53s1.48-4.53,4.23-4.53,4.2,2,4.2,4.53-1.45,4.53-4.2,4.53"/><path id="_Trazado_compuesto_11" data-name="&lt;Trazado compuesto&gt;" class="cls-2" d="M117.27,169.1H115l-.29.3V191l.29.3h2l.29-.3.29-.87.15-.15.14.15a5.14,5.14,0,0,0,3.62,1.46,7.17,7.17,0,0,0,0-14.32,5.16,5.16,0,0,0-3.62,1.46l-.14.15-.15-.15V169.4ZM121.33,189c-2.46,0-4.06-2-4.06-4.53s1.6-4.53,4.06-4.53c2.75,0,4.06,2,4.06,4.53s-1.31,4.53-4.06,4.53"/><path id="_Trazado_compuesto_12" data-name="&lt;Trazado compuesto&gt;" class="cls-2" d="M138.27,171.15h-3.19l-.28.29V175l.28.29h3.19l.29-.29v-3.51Zm-.57,6.43h-5.8l-.29.29v2l.29.29h3.18v8.48h-4.34l-.29.29v2l.29.3H142l.29-.3v-2l-.29-.29H138V177.87Z"/><path id="_Trazado_compuesto_13" data-name="&lt;Trazado compuesto&gt;" class="cls-2" d="M151.32,177.29a6.81,6.81,0,0,0-6.81,7.16,7,7,0,0,0,7,7.16,6.7,6.7,0,0,0,5.77-3.22v-.29l-2-1.31h-.29a3.65,3.65,0,0,1-3.48,2.19,3.83,3.83,0,0,1-4.05-3.8h10.14l.29-.88a6.55,6.55,0,0,0-6.52-7m-3.77,5.32a3.57,3.57,0,0,1,3.77-2.69,3.24,3.24,0,0,1,3.47,2.69Z"/><path id="_Trazado_5" data-name="&lt;Trazado&gt;" class="cls-2" d="M166.55,177.29a4.67,4.67,0,0,0-3.33,1.46l-.15.14-.14-.14-.3-.88-.29-.29h-2l-.28.29V191l.28.3h2.32l.3-.3v-8a3.21,3.21,0,0,1,3.18-3.09,2.61,2.61,0,0,1,2.9,2.92l.29.29,2.32-.29.29-.29c0-3.22-1.89-5.26-5.36-5.26"/><path id="_Trazado_6" data-name="&lt;Trazado&gt;" class="cls-2" d="M180.76,177.29a4.79,4.79,0,0,0-3.48,1.46l-.14.14-.15-.14-.15-.88-.28-.29h-2.18l-.28.29V191l.28.29h2.32L177,191v-8a3.4,3.4,0,0,1,3.48-3.09c2,0,3.19,1.17,3.19,3.5V191l.29.29h2.32l.29-.29v-7.89c0-3.94-2.32-5.84-5.8-5.84"/><path id="_Trazado_compuesto_14" data-name="&lt;Trazado compuesto&gt;" class="cls-2" d="M195.83,177.29a7.16,7.16,0,1,0,7.1,7.16,7,7,0,0,0-7.1-7.16m0,11.69c-2.75,0-4.23-2-4.23-4.53s1.48-4.53,4.23-4.53,4.2,2,4.2,4.53-1.45,4.53-4.2,4.53"/><polygon id="_Trazado_7" data-name="&lt;Trazado&gt;" class="cls-2" points="64.47 189.71 44.06 189.71 43.78 189.99 43.77 190 43.77 191.61 44.06 191.9 64.47 191.9 64.76 191.61 64.76 191.6 64.76 190 64.47 189.71"/><path id="_Trazado_8" data-name="&lt;Trazado&gt;" class="cls-2" d="M85.53,169.4a10.9,10.9,0,0,0-11,11.25c0,6.28,4.64,11.25,10.87,11.25a10.69,10.69,0,0,0,10.71-9.61l-.18-.37-2.56-2.59H82.64l-.29.29V182l.29.29H93.13c-.3,3.94-3.51,6.72-7.74,6.72-4.79,0-7.8-3.51-7.8-8.3s3-8.36,7.8-8.36a7.63,7.63,0,0,1,6.3,3l.42,0,1.64-1.66v-.46a10.71,10.71,0,0,0-8.23-3.81"/></g><polygon id="_Trazado_9" data-name="&lt;Trazado&gt;" class="cls-2" points="27.36 25.6 27.36 110.73 413.45 110.73 458.05 66.13 417.51 25.6 27.36 25.6"/><path id="_Trazado_compuesto_15" data-name="&lt;Trazado compuesto&gt;" class="cls-3" d="M47.77,39.14a5.42,5.42,0,1,1-5.56,5.42,5.43,5.43,0,0,1,5.56-5.42M52,87.49h-8.5V55.8H52Z"/><path id="_Trazado_10" data-name="&lt;Trazado&gt;" class="cls-3" d="M61.82,87.49V55.8H70v2.55a14,14,0,0,1,9-3.2,14.29,14.29,0,0,1,11,5.09c2.09,2.49,3.26,5.69,3.26,11.11V87.49H84.69V70.7c0-3.14-.72-4.77-1.9-6A6.68,6.68,0,0,0,78,63a10.14,10.14,0,0,0-7.71,3.92V87.49Z"/><path id="_Trazado_11" data-name="&lt;Trazado&gt;" class="cls-3" d="M102.33,87.49V55.8h8.17v2.55a14,14,0,0,1,9-3.2,14.28,14.28,0,0,1,11,5.09c2.09,2.49,3.27,5.69,3.27,11.11V87.49h-8.5V70.7c0-3.14-.71-4.77-1.89-6A6.68,6.68,0,0,0,118.54,63a10.14,10.14,0,0,0-7.71,3.92V87.49Z"/><path id="_Trazado_compuesto_16" data-name="&lt;Trazado compuesto&gt;" class="cls-3" d="M157.09,55.15a16.5,16.5,0,1,1-16.86,16.53,16.5,16.5,0,0,1,16.86-16.53m0,25.15a8.28,8.28,0,0,0,8.37-8.62c0-4.77-3.4-8.69-8.37-8.69s-8.36,3.92-8.36,8.69a8.27,8.27,0,0,0,8.36,8.62"/><polygon id="_Trazado_12" data-name="&lt;Trazado&gt;" class="cls-3" points="193.43 75.14 202.12 55.8 210.94 55.8 196.37 87.49 190.49 87.49 175.92 55.8 184.74 55.8 193.43 75.14"/><path id="_Trazado_compuesto_17" data-name="&lt;Trazado compuesto&gt;" class="cls-3" d="M245.9,87.49h-8.17V84.94a13.21,13.21,0,0,1-8.82,3.21,16,16,0,0,1-12-5.36,17,17,0,0,1-4-11.11c0-9.35,6.93-16.53,15.55-16.53a14.48,14.48,0,0,1,9.28,3.2V55.8h8.17Zm-8.49-20.58A9.77,9.77,0,0,0,229.57,63c-5,0-8.17,4.11-8.17,8.69a8.28,8.28,0,0,0,8.36,8.62,9.28,9.28,0,0,0,7.65-3.92Z"/><path id="_Trazado_compuesto_18" data-name="&lt;Trazado compuesto&gt;" class="cls-3" d="M277.92,87.49V84.94a13.21,13.21,0,0,1-8.82,3.21,16,16,0,0,1-12-5.36,17,17,0,0,1-4-11.11c0-9.35,6.93-16.53,15.55-16.53a14.07,14.07,0,0,1,9,2.94v-17h8.49V87.49Zm-.32-20.58A9.77,9.77,0,0,0,269.75,63c-5,0-8.16,4.11-8.16,8.69A8.28,8.28,0,0,0,270,80.3a9.28,9.28,0,0,0,7.65-3.92Z"/><path id="_Trazado_compuesto_19" data-name="&lt;Trazado compuesto&gt;" class="cls-3" d="M310.14,55.15a16.5,16.5,0,1,1-16.86,16.53,16.5,16.5,0,0,1,16.86-16.53m0,25.15a8.27,8.27,0,0,0,8.36-8.62c0-4.77-3.4-8.69-8.36-8.69s-8.37,3.92-8.37,8.69a8.28,8.28,0,0,0,8.37,8.62"/><path id="_Trazado_13" data-name="&lt;Trazado&gt;" class="cls-3" d="M353.46,63.31a12.15,12.15,0,0,0-3.07-.32,9.43,9.43,0,0,0-7.71,4.57V87.49h-8.49V55.8h8.16V59c1.9-2.35,5.36-3.85,9.22-3.85a17.3,17.3,0,0,1,2.87.26Z"/><path id="_Trazado_compuesto_20" data-name="&lt;Trazado compuesto&gt;" class="cls-3" d="M387,82.46a17.23,17.23,0,0,1-13,5.69c-9.47,0-16.6-6.54-16.6-16.47,0-8.82,6-16.53,15.43-16.53,8.75,0,15,7.38,15,16.2a13.09,13.09,0,0,1-.2,2.42H365.62a8.32,8.32,0,0,0,8.56,7.52,11.23,11.23,0,0,0,8-3.66Zm-7.91-14.9A6.31,6.31,0,0,0,372.81,62a6.88,6.88,0,0,0-6.8,5.55Z"/><path id="_Trazado_14" data-name="&lt;Trazado&gt;" class="cls-3" d="M396.26,77.82A13.37,13.37,0,0,0,405,81c2.28,0,4.05-1.11,4.05-2.68,0-4.77-15.36-3.07-15.36-13.27,0-6.07,5.88-9.86,12.15-9.86,4.12,0,8.63,1.56,10.72,3.2l-4,6.14a10.78,10.78,0,0,0-6.08-2.16c-2.35,0-4.31.92-4.31,2.55,0,4.12,15.35,2.49,15.35,13.46,0,6.08-5.94,9.81-12.61,9.81a21.93,21.93,0,0,1-12.74-4.25Z"/><polygon id="_Trazado_15" data-name="&lt;Trazado&gt;" class="cls-4" points="231.04 121.67 231.04 206.8 502.24 206.8 546.84 162.2 506.31 121.67 231.04 121.67"/><path id="_Trazado_compuesto_21" data-name="&lt;Trazado compuesto&gt;" class="cls-2" d="M247.2,149.92h8.17v2.55a14.5,14.5,0,0,1,9.28-3.2c8.63,0,15.55,7.18,15.55,16.53a17,17,0,0,1-4,11.11,16.11,16.11,0,0,1-12,5.36,13.36,13.36,0,0,1-8.49-2.88v17.9h-8.5Zm8.5,20.58a9.25,9.25,0,0,0,7.64,3.92,8.28,8.28,0,0,0,8.37-8.62c0-4.58-3.21-8.69-8.17-8.69A9.74,9.74,0,0,0,255.7,161Z"/><path id="_Trazado_compuesto_22" data-name="&lt;Trazado compuesto&gt;" class="cls-2" d="M317.45,149.92v31.69h-8.17v-2.55a12.56,12.56,0,0,1-8.56,3.21,13.88,13.88,0,0,1-10.78-5.1c-2-2.48-3.2-5.75-3.2-10.46V149.92h8.49V167c0,2.88.59,4.31,1.57,5.42a6.36,6.36,0,0,0,4.77,2A9.79,9.79,0,0,0,309,170.5V149.92Zm-4.25-15.36L305.36,145h-5.88l4.57-10.46Z"/><path id="_Trazado_compuesto_23" data-name="&lt;Trazado compuesto&gt;" class="cls-2" d="M327.25,181.61V135.22h8.5v17a14,14,0,0,1,8.95-2.94c8.62,0,15.55,7.18,15.55,16.53a17,17,0,0,1-4.05,11.11,16,16,0,0,1-12,5.36,13.27,13.27,0,0,1-8.82-3.2v2.54Zm8.5-11.11a9.25,9.25,0,0,0,7.64,3.92,8.28,8.28,0,0,0,8.37-8.62c0-4.58-3.21-8.69-8.17-8.69a9.74,9.74,0,0,0-7.84,3.92Z"/><rect id="_Trazado_16" data-name="&lt;Trazado&gt;" class="cls-2" x="367.44" y="135.22" width="8.5" height="46.4"/><path id="_Trazado_compuesto_24" data-name="&lt;Trazado compuesto&gt;" class="cls-2" d="M390,133.26a5.43,5.43,0,1,1-5.56,5.42,5.43,5.43,0,0,1,5.56-5.42m4.24,48.35h-8.49V149.92h8.49Z"/><path id="_Trazado_17" data-name="&lt;Trazado&gt;" class="cls-2" d="M432.79,175.14a16.81,16.81,0,0,1-14.38,7.13c-9.8,0-17-7.32-17-16.47s7.39-16.53,17.06-16.53a16.9,16.9,0,0,1,13.33,6.33l-6,5.3a9.16,9.16,0,0,0-7.31-3.79,8.49,8.49,0,0,0-8.56,8.69,8.38,8.38,0,0,0,8.75,8.63,9.28,9.28,0,0,0,7.58-4.19Z"/><path id="_Trazado_compuesto_25" data-name="&lt;Trazado compuesto&gt;" class="cls-2" d="M453.57,149.27a16.5,16.5,0,1,1-16.86,16.53,16.5,16.5,0,0,1,16.86-16.53m0,25.15a8.27,8.27,0,0,0,8.36-8.62c0-4.77-3.4-8.69-8.36-8.69s-8.37,3.92-8.37,8.69a8.28,8.28,0,0,0,8.37,8.62"/><path id="_Trazado_18" data-name="&lt;Trazado&gt;" class="cls-2" d="M478.6,171.94a13.34,13.34,0,0,0,8.69,3.14c2.28,0,4-1.11,4-2.68,0-4.77-15.36-3.07-15.36-13.27,0-6.07,5.88-9.86,12.16-9.86,4.11,0,8.62,1.56,10.71,3.2l-4,6.14a10.68,10.68,0,0,0-6.08-2.16c-2.35,0-4.31.92-4.31,2.55,0,4.12,15.35,2.49,15.35,13.46,0,6.08-5.94,9.81-12.61,9.81A21.93,21.93,0,0,1,474.48,178Z"/></g></svg>